<svg version="1.0" xmlns="http://www.w3.org/2000/svg" width="512" height="512" viewBox="0 0 512 512" preserveAspectRatio="xMidYMid meet">
  <g transform="translate(0,512) scale(0.1,-0.1)" fill="#111827" stroke="none">
    <path d="M2584 4564 c199 -492 563 -805 807 -1212 136 -228 209 -466 209 -715 0 -765 -530 -1397 -1040 -1981 -510 584 -1040 1216 -1040 1981 0 644 408 1100 799 1517 72 -312 116 -541 253 -794 167 248 261 546 12 1204z"/>
    <path d="M2571 3417 c161 -258 479 -511 479 -957 0 -373 -195 -699 -490 -1051 -295 352 -490 678 -490 1051 0 353 217 624 419 869 37 -161 59 -279 130 -409 87 127 136 281 -48 497z"/>
  </g>
</svg>
