<svg width="1180" height="320" viewBox="0 0 1180 320" fill="none" xmlns="http://www.w3.org/2000/svg">
  <defs>
    <linearGradient id="bgGradient" x1="32" y1="32" x2="288" y2="288" gradientUnits="userSpaceOnUse">
      <stop offset="0" stop-color="#7C3AED"/>
      <stop offset="1" stop-color="#2563EB"/>
    </linearGradient>
    <radialGradient id="bgGlow" cx="0" cy="0" r="1" gradientUnits="userSpaceOnUse" gradientTransform="translate(112 84) rotate(45) scale(160 160)">
      <stop stop-color="#A78BFA" stop-opacity="0.34"/>
      <stop offset="1" stop-color="#A78BFA" stop-opacity="0"/>
    </radialGradient>
    <linearGradient id="flameOuter" x1="74" y1="78" x2="183" y2="256" gradientUnits="userSpaceOnUse">
      <stop offset="0" stop-color="#FFE08A"/>
      <stop offset="0.34" stop-color="#FFB24A"/>
      <stop offset="0.72" stop-color="#FF7B38"/>
      <stop offset="1" stop-color="#FF5A2A"/>
    </linearGradient>
    <linearGradient id="flameInner" x1="102" y1="136" x2="149" y2="224" gradientUnits="userSpaceOnUse">
      <stop offset="0" stop-color="#FFF2BE"/>
      <stop offset="0.4" stop-color="#FFD66E"/>
      <stop offset="1" stop-color="#FF9B44"/>
    </linearGradient>
  </defs>

  <rect x="24" y="24" width="272" height="272" rx="72" fill="url(#bgGradient)"/>
  <rect x="24" y="24" width="272" height="272" rx="72" fill="url(#bgGlow)"/>
  <path d="M149.2 78.4C163.3 113.3 189.1 135.6 206.4 164.4C216 180.6 221.2 197.4 221.2 215C221.2 269.3 183.5 314.1 147.3 354.9C111.1 314.1 73.5 269.3 73.5 215C73.5 169.3 102.4 136.9 130.1 107.3C135.2 129.5 138.3 145.7 148.1 163.7C160 146 166.6 124.8 149.2 78.4Z" fill="url(#flameOuter)" transform="translate(0 -75)"/>
  <path d="M148.2 159.8C159.6 178 182.1 195.8 182.1 227.2C182.1 253.5 168.2 276.5 147.4 301.2C126.6 276.5 112.7 253.5 112.7 227.2C112.7 202.4 128 183.4 142.2 166.2C144.8 177.6 146.4 186 151.4 195.2C157.5 186.1 161 175.3 148.2 159.8Z" fill="url(#flameInner)" transform="translate(0 -75)"/>

  <g fill="#171228">
    <path d="M388.8 205V96.2H421.8V138.2H465.6V96.2H498.6V205H465.6V165.2H421.8V205H388.8Z"/>
    <path d="M560.3 205.8C548.833 205.8 538.567 203.533 529.5 199C520.433 194.467 513.3 188.067 508.1 179.8C502.9 171.4 500.3 161.6 500.3 150.4C500.3 139.333 502.833 129.667 507.9 121.4C513.1 113.133 520.1 106.8 528.9 102.4C537.7 97.8667 547.767 95.6 559.1 95.6C570.167 95.6 579.9 97.8 588.3 102.2C596.7 106.6 603.233 112.8 607.9 120.8C612.7 128.8 615.1 138.267 615.1 149.2C615.1 151.067 615.033 153 614.9 155C614.767 156.867 614.567 158.867 614.3 161H531.5C532.433 166.6 535.233 170.933 539.9 174C544.7 176.933 550.367 178.4 556.9 178.4C562.233 178.4 566.767 177.667 570.5 176.2C574.233 174.6 578.033 172.133 581.9 168.8L607.9 181.8C602.167 189.133 594.967 194.8 586.3 198.8C577.767 203.8 569.1 205.8 560.3 205.8ZM531.9 140.8H583.9C582.967 136 580.567 132.2 576.7 129.4C572.833 126.6 567.767 125.2 561.5 125.2C555.1 125.2 549.7 126.667 545.3 129.6C541.033 132.4 536.567 136.133 531.9 140.8Z"/>
    <path d="M664.8 205.8C652.933 205.8 642.267 203.267 632.8 198.2C623.467 193 616.133 185.933 610.8 177C605.6 168.067 603 158 603 146.8C603 135.733 605.6 125.733 610.8 116.8C616.133 107.867 623.467 100.867 632.8 95.8C642.267 90.6 652.933 88 664.8 88C676.667 88 687.267 90.6 696.6 95.8C706.067 100.867 713.4 107.867 718.6 116.8C723.933 125.733 726.6 135.733 726.6 146.8C726.6 158 723.933 168.067 718.6 177C713.4 185.933 706.067 193 696.6 198.2C687.267 203.267 676.667 205.8 664.8 205.8ZM664.8 175.6C670 175.6 674.467 174.333 678.2 171.8C681.933 169.267 684.8 165.8 686.8 161.4C688.933 156.867 690 152 690 146.8C690 141.6 688.933 136.8 686.8 132.4C684.8 128 681.933 124.533 678.2 122C674.467 119.467 670 118.2 664.8 118.2C659.6 118.2 655.067 119.467 651.2 122C647.467 124.533 644.533 128 642.4 132.4C640.4 136.8 639.4 141.6 639.4 146.8C639.4 152 640.4 156.867 642.4 161.4C644.533 165.8 647.467 169.267 651.2 171.8C655.067 174.333 659.6 175.6 664.8 175.6Z"/>
    <path d="M726.9 205V92.6H759.3V205H726.9Z"/>
    <path d="M804.5 205.8C795.833 205.8 788.167 204.2 781.5 201C774.833 197.667 769.633 193.133 765.9 187.4C762.3 181.533 760.5 174.733 760.5 167C760.5 159.267 762.3 152.533 765.9 146.8C769.633 140.933 774.833 136.4 781.5 133.2C788.167 129.867 795.833 128.2 804.5 128.2C812.1 128.2 818.833 129.4 824.7 131.8C830.567 134.2 835.167 137.467 838.5 141.6V92.6H870.9V205H839.5V194C836.167 198.267 831.567 201.667 825.7 204.2C819.833 206.6 812.767 207.8 804.5 205.8ZM816.1 176.8C821.3 176.8 825.767 175.533 829.5 173C833.367 170.333 836.3 166.8 838.3 162.4C840.433 157.867 841.5 153 841.5 147.8C841.5 142.6 840.433 137.8 838.3 133.4C836.3 129 833.367 125.533 829.5 123C825.767 120.333 821.3 119 816.1 119C810.9 119 806.367 120.333 802.5 123C798.767 125.533 795.833 129 793.7 133.4C791.7 137.8 790.7 142.6 790.7 147.8C790.7 153 791.7 157.867 793.7 162.4C795.833 166.8 798.767 170.333 802.5 173C806.367 175.533 810.9 176.8 816.1 176.8Z"/>
  </g>
</svg>
