<svg width="1024" height="1024" viewBox="0 0 1024 1024" fill="none" xmlns="http://www.w3.org/2000/svg">
  <defs>
    <linearGradient id="bgGradient" x1="164" y1="136" x2="860" y2="888" gradientUnits="userSpaceOnUse">
      <stop offset="0" stop-color="#7C3AED"/>
      <stop offset="1" stop-color="#2563EB"/>
    </linearGradient>
    <radialGradient id="bgGlow" cx="0" cy="0" r="1" gradientUnits="userSpaceOnUse" gradientTransform="translate(328 248) rotate(45) scale(512 512)">
      <stop stop-color="#A78BFA" stop-opacity="0.34"/>
      <stop offset="1" stop-color="#A78BFA" stop-opacity="0"/>
    </radialGradient>
    <linearGradient id="flameOuter" x1="369" y1="250" x2="676" y2="781" gradientUnits="userSpaceOnUse">
      <stop offset="0" stop-color="#FFE08A"/>
      <stop offset="0.34" stop-color="#FFB24A"/>
      <stop offset="0.72" stop-color="#FF7B38"/>
      <stop offset="1" stop-color="#FF5A2A"/>
    </linearGradient>
    <linearGradient id="flameInner" x1="452" y1="426" x2="580" y2="686" gradientUnits="userSpaceOnUse">
      <stop offset="0" stop-color="#FFF2BE"/>
      <stop offset="0.4" stop-color="#FFD66E"/>
      <stop offset="1" stop-color="#FF9B44"/>
    </linearGradient>
    <filter id="shadow" x="86" y="58" width="852" height="908" filterUnits="userSpaceOnUse" color-interpolation-filters="sRGB">
      <feFlood flood-opacity="0" result="BackgroundImageFix"/>
      <feColorMatrix in="SourceAlpha" type="matrix" values="0 0 0 0 0 0 0 0 0 0 0 0 0 0 0 0 0 0 127 0" result="hardAlpha"/>
      <feOffset dy="26"/>
      <feGaussianBlur stdDeviation="30"/>
      <feComposite in2="hardAlpha" operator="out"/>
      <feColorMatrix type="matrix" values="0 0 0 0 0.0823529 0 0 0 0 0.0705882 0 0 0 0 0.211765 0 0 0 0.28 0"/>
      <feBlend mode="normal" in2="BackgroundImageFix" result="effect1_dropShadow"/>
      <feBlend mode="normal" in="SourceGraphic" in2="effect1_dropShadow" result="shape"/>
    </filter>
  </defs>

  <g filter="url(#shadow)">
    <rect x="128" y="100" width="768" height="768" rx="196" fill="url(#bgGradient)"/>
    <rect x="128" y="100" width="768" height="768" rx="196" fill="url(#bgGlow)"/>

    <g>
      <path d="M516.2 247.8C556 346.1 628.8 408.8 677.6 490.1C704.7 535.7 719.2 583.2 719.2 633C719.2 785.8 613.3 912 511.4 1026.8C409.5 912 303.5 785.8 303.5 633C303.5 504.5 385 413.4 463.1 330.2C477.4 392.6 486.2 438.2 513.6 488.6C547.1 439 565.9 379.2 516.2 247.8Z" fill="url(#flameOuter)" transform="translate(0 -210) scale(1.0)"/>
      <path d="M513.4 476.8C545.5 528.1 609 578.4 609 667.6C609 742.3 570.1 807.4 511.4 877.8C452.6 807.4 413.8 742.3 413.8 667.6C413.8 597 457 542.8 497.3 493.8C504.7 526.1 509.1 549.9 523.2 576C540.6 550.4 550.3 519.3 513.4 476.8Z" fill="url(#flameInner)" transform="translate(0 -210) scale(1.0)"/>
    </g>
  </g>
</svg>
